<?xml version="1.0" encoding="utf-8"?>
<svg width="24px" height="19.333374px" viewBox="0 0 24 19.333374" version="1.1" xmlns:xlink="http://www.w3.org/1999/xlink" xmlns="http://www.w3.org/2000/svg">
  <defs>
    <filter id="filter_1">
      <feColorMatrix in="SourceGraphic" type="matrix" values="0 0 0 0 1 0 0 0 0 0.79607844 0 0 0 0 0 0 0 0 1 0" />
    </filter>
    <path d="M0 0L24 0L24 19.3333L0 19.3333L0 0Z" id="path_1" />
    <clipPath id="mask_1">
      <use xlink:href="#path_1" />
    </clipPath>
  </defs>
  <g id="Upload-Copy-2">
    <g id="Group-3" filter="url(#filter_1)">
      <path d="M0 0L24 0L24 19.3333L0 19.3333L0 0Z" id="Clip-2" fill="none" fill-rule="evenodd" stroke="none" />
      <g clip-path="url(#mask_1)">
        <path d="M8.77919 4.98713L11.2505 2.54096L11.2505 14.1285C11.2505 14.5411 11.588 14.872 12.0005 14.872C12.413 14.872 12.7504 14.5411 12.7504 14.1285L12.7504 2.54096L15.2215 4.99072C15.368 5.13205 15.5592 5.20647 15.7504 5.20647C15.9416 5.20647 16.1328 5.13205 16.279 4.98707C16.5715 4.69716 16.5715 4.22496 16.279 3.93499L12.5291 0.217412C12.2366 -0.0724928 11.7603 -0.0724928 11.4678 0.217412L7.71788 3.93499C7.42545 4.22496 7.42545 4.69709 7.71788 4.98707C8.01031 5.27704 8.48662 5.28089 8.77912 4.98707L8.77919 4.98713ZM24 10.411L24 17.1027C24 18.3331 22.9914 19.3333 21.7499 19.3333L2.25011 19.3333C1.00894 19.3333 0 18.3334 0 17.1027L0.000267854 10.411C0.000267854 9.99843 0.337697 9.66756 0.750193 9.66756C1.16269 9.66756 1.50012 9.99843 1.50012 10.411L1.50012 17.1027C1.50012 17.5116 1.83755 17.8461 2.25004 17.8461L21.7498 17.8461C22.1623 17.8461 22.4997 17.5116 22.4997 17.1027L22.5 10.411C22.5 9.99843 22.8374 9.66756 23.2499 9.66756C23.6624 9.66756 23.9999 9.99843 23.9999 10.411L24 10.411Z" id="Fill-1" fill="#000000" fill-rule="evenodd" stroke="none" />
      </g>
    </g>
  </g>
</svg>