<?xml version="1.0" encoding="utf-8"?>
<svg width="237.30646px" height="100px" viewBox="0 0 237.30646 100" version="1.1" xmlns:xlink="http://www.w3.org/1999/xlink" xmlns="http://www.w3.org/2000/svg">
  <defs>
    <path d="M0 100L237.306 100L237.306 0L0 0L0 100Z" id="path_1" />
    <clipPath id="mask_1">
      <use xlink:href="#path_1" />
    </clipPath>
  </defs>
  <g id="Logo-2">
    <path d="M109.294 82.3171C110.017 85.2595 111.618 87.4277 113.424 87.4277C115.85 87.4277 116.676 84.9495 116.676 77.4652L116.676 71.7879C116.676 64.3037 115.85 61.8254 113.424 61.8254C111.618 61.8254 110.017 63.9937 109.294 66.936L109.294 82.3171ZM109.294 99.4025L113.424 99.4025L113.424 99.5051L96.9068 99.5051L96.9068 99.4025L101.036 99.4025L101.036 61.8254L96.9068 61.8254L96.9068 61.7228L109.294 61.7228L109.294 66.471C110.379 62.6519 112.649 61.0513 115.488 61.0513C120.444 61.0513 125.45 66.781 125.45 74.6266C125.45 82.4722 120.444 88.2018 115.488 88.2018C112.649 88.2018 110.379 86.6013 109.294 82.7822L109.294 99.4025Z" id="Fill-1" fill="#FFFFFF" fill-rule="evenodd" stroke="none" />
    <path d="M136.135 71.0657L136.135 74.4721L142.845 74.4721C142.845 62.9101 142.38 61.1555 139.748 61.1555C136.393 61.1555 136.135 65.0783 136.135 71.0657L136.135 71.0657ZM136.135 74.5757L136.135 76.0212C136.135 83.1431 136.444 87.4016 141.76 87.4016C146.562 87.4016 149.735 84.0722 151.001 78.4462L151.104 78.4462C149.735 84.4859 146.199 88.2013 139.748 88.2013C133.193 88.2013 127.309 81.8536 127.309 74.6261C127.309 67.4006 133.193 61.0508 139.748 61.0508C146.458 61.0508 151.62 67.2456 151.62 74.5757L136.135 74.5757Z" id="Fill-3" fill="#FFFFFF" fill-rule="evenodd" stroke="none" />
    <path d="M54.9055 99.4967L54.9055 99.2143L67.3364 99.2143L67.3364 49.6329L36.2592 49.6329L36.2592 99.2143L48.6901 99.2143L48.6901 99.4967L0.0970577 99.4967L0.0970577 99.2143L12.5279 99.2143L12.5279 0.897709L0.0970577 0.897709L0.0970577 0.615324L48.6901 0.615324L48.6901 0.897709L36.2592 0.897709L36.2592 49.3495L67.3364 49.3495L67.3364 0.897709L54.9055 0.897709L54.9055 0.615324L103.499 0.615324L103.499 0.897709L91.0676 0.897709L91.0676 99.2143L103.499 99.2143L103.499 99.4967L54.9055 99.4967Z" id="Fill-5" fill="#FFFFFF" fill-rule="evenodd" stroke="none" />
    <path d="M126.651 1.94362C118.557 1.94362 118.349 14.0852 118.349 29.0289C118.349 43.9726 118.557 56.1142 126.651 56.1142C134.745 56.1142 135.057 43.9726 135.057 29.0289C135.057 14.0852 134.745 1.94362 126.651 1.94362M126.651 56.3216C113.471 56.3216 100.604 43.557 100.604 29.0289C100.604 14.4999 113.471 1.73628 126.651 1.73628C139.83 1.73628 152.699 14.4999 152.699 29.0289C152.699 43.557 139.83 56.3216 126.651 56.3216" id="Fill-7" fill="#FFFFFF" fill-rule="evenodd" stroke="none" />
    <path d="M142.615 49.1541C142.615 45.9185 141.722 42.4776 143.234 39.864C144.793 37.1685 147.69 35.2333 150.385 33.6743C152.998 32.1626 156.086 32.2317 159.322 32.2317C162.558 32.2317 165.845 31.82 168.458 33.3317C171.153 34.8917 172.995 37.6652 174.555 40.3607C176.066 42.9732 178.608 45.9185 178.608 49.1541C178.608 52.3897 174.943 54.6853 173.431 57.2979C171.871 59.9934 170.396 62.1083 167.701 63.6674C165.087 65.18 162.558 66.9681 159.322 66.9681C156.086 66.9681 152.722 66.6215 150.11 65.1089C147.414 63.5499 145.789 60.5621 144.23 57.8666C142.718 55.254 142.615 52.3897 142.615 49.1541" id="Fill-9" fill="#FFCB00" fill-rule="evenodd" stroke="none" />
    <path d="M221.573 30.9358L214.114 30.9358L214.114 74.2494C214.114 83.0646 211.401 91.3713 198.264 91.3713C185.719 91.3713 175.125 86.5391 175.125 71.4522L175.125 30.9358L167.665 30.9358L167.665 30.767L196.824 30.767L196.824 30.9358L189.364 30.9358L189.364 74.1645C189.364 84.5901 191.567 90.0995 201.146 90.0995C213.097 90.0995 213.902 79.2504 213.902 74.2494L213.902 30.9358L206.401 30.9358L206.401 30.767L221.573 30.767L221.573 30.9358Z" id="Fill-11" fill="#FFFFFF" fill-rule="evenodd" stroke="none" />
    <path d="M201.146 91.1851L201.146 90.1978C209.283 90.1978 213.409 85.0319 213.409 74.8413L213.409 31.6275L205.907 31.6275L205.907 30.4713L222.066 30.4713L222.066 31.6275L214.396 31.6275L214.396 74.8413C214.396 82.2979 212.098 91.1851 201.146 91.1851" id="Fill-13" fill="#FFFFFF" fill-rule="evenodd" stroke="none" />
    <path d="M219.416 88.143C218.171 88.143 216.927 89.1501 216.632 91.1643L216.513 91.1643L216.513 76.1169L216.632 76.1169C216.808 81.3894 221.429 90.4534 227.887 90.4534C230.493 90.4534 232.152 88.7936 232.152 86.0685C232.152 78.9013 216.217 79.7297 216.217 68.4165C216.217 64.0326 219.889 59.2932 225.221 59.2932C228.183 59.2932 231.026 61.4852 233.337 61.4852C234.107 61.4852 234.699 60.952 234.699 59.2932L234.818 59.2932L234.818 71.1406L234.699 71.1406C234.462 67.9416 231.324 59.4107 225.221 59.4107C222.556 59.4107 220.6 61.425 220.6 63.8539C220.6 70.3112 237.306 69.6596 237.306 81.0932C237.306 86.4832 233.396 90.5719 227.887 90.5719C224.274 90.5719 222.318 88.143 219.416 88.143" id="Fill-15" fill="#FFFFFF" fill-rule="evenodd" stroke="none" />
    <path d="M160.869 45.1088C161.003 44.8758 161.236 44.7415 161.469 44.7415C161.836 44.7415 162.103 45.0752 162.103 45.4415C162.103 45.5413 162.103 45.6746 161.803 46.2413C160.303 49.1076 157.27 54.9725 153.871 54.9725C150.306 54.9725 149.938 49.8402 149.938 47.1072C149.938 46.5079 149.938 45.9421 149.972 45.3408C150.005 45.0081 150.272 44.7089 150.672 44.7089C151.038 44.7089 151.304 45.0081 151.304 45.409C151.271 45.9747 151.271 46.5415 151.271 47.1072C151.271 48.5409 151.405 53.6406 153.871 53.6406C156.304 53.6406 159.169 48.5409 160.869 45.1088M149.938 39.0099C149.938 38.8766 149.805 38.8094 149.805 38.5093C149.805 38.2101 150.072 37.8438 150.472 37.8438C151.038 37.8438 151.271 38.4767 151.271 39.0099C151.271 39.4433 151.139 40.0762 150.538 40.0762C150.072 40.0762 149.871 39.7425 149.871 39.4098C149.871 39.1758 149.938 39.1096 149.938 39.0099" id="Fill-17" fill="#008FB3" fill-rule="evenodd" stroke="none" />
    <path d="M161.538 44.7087C161.904 44.7087 162.104 45.0089 162.172 45.4088C162.338 46.3083 162.504 47.4417 162.604 48.3748C163.004 46.8079 163.704 42.8762 165.237 42.8762C166.336 42.8762 166.336 44.7749 166.771 47.0083C167.336 50.0741 168.137 53.6404 169.636 53.6404C172.069 53.6404 174.934 48.5407 176.634 45.1086C176.768 44.8756 177.001 44.7413 177.234 44.7413C177.601 44.7413 177.868 45.075 177.868 45.4414C177.868 45.5421 177.868 45.6754 177.567 46.2421C176.068 49.1074 173.035 54.9733 169.636 54.9733C166.403 54.9733 165.671 48.3087 165.037 44.8756C163.805 47.7409 163.171 52.1742 163.071 54.3395C163.038 54.7068 162.771 54.9388 162.405 54.9733C162.038 54.9733 161.771 54.7068 161.738 54.3395C161.738 54.3069 161.538 49.2407 160.838 45.3416C160.838 45.0089 161.138 44.7087 161.538 44.7087" id="Fill-19" fill="#008FB3" fill-rule="evenodd" stroke="none" />
    <path d="M0 100L237.306 100L237.306 0L0 0L0 100Z" id="Clip-22" fill="none" fill-rule="evenodd" stroke="none" />
    <g clip-path="url(#mask_1)">
      <path d="M54.7462 0.987362L103.584 0.987362L103.584 0L54.7462 0L54.7462 0.987362Z" id="Fill-21" fill="#FFFFFF" fill-rule="evenodd" stroke="none" />
      <path d="M167.664 31.5897L196.919 31.5897L196.919 30.6023L167.664 30.6023L167.664 31.5897Z" id="Fill-23" fill="#FFFFFF" fill-rule="evenodd" stroke="none" />
      <path d="M133.647 74.6564L149.475 74.6564L149.475 73.669L133.647 73.669L133.647 74.6564Z" id="Fill-24" fill="#FFFFFF" fill-rule="evenodd" stroke="none" />
      <path d="M0 0.987362L48.8389 0.987362L48.8389 0L0 0L0 0.987362Z" id="Fill-25" fill="#FFFFFF" fill-rule="evenodd" stroke="none" />
      <path d="M54.7462 100L114.445 100L114.445 99.0126L54.7462 99.0126L54.7462 100Z" id="Fill-26" fill="#FFFFFF" fill-rule="evenodd" stroke="none" />
      <path d="M97.0577 62.5464L109.312 62.5464L109.312 61.559L97.0577 61.559L97.0577 62.5464Z" id="Fill-27" fill="#FFFFFF" fill-rule="evenodd" stroke="none" />
      <path d="M0 100L48.8389 100L48.8389 99.0126L0 99.0126L0 100Z" id="Fill-28" fill="#FFFFFF" fill-rule="evenodd" stroke="none" />
      <path d="M27.9769 50.4937L76.8158 50.4937L76.8158 49.5063L27.9769 49.5063L27.9769 50.4937Z" id="Fill-29" fill="#FFFFFF" fill-rule="evenodd" stroke="none" />
    </g>
  </g>
</svg>